PathFileType	4	(X/Y/Z)	E:\Qualisys_Data\Carbon_Farble_Plate\Data\Amateur_Runner\S1\T3\S1T3V11_c3d.trc
DataRate	CameraRate	NumFrames	NumMarkers	Units	OrigDataRate	OrigDataStartFrame	OrigNumFrames
200.000000	200.000000	5	39	mm	200.000000	77	311
Frame#	Time	LSHO			RSHO			LICST			RICST			LASIS			LHEEL			RASIS			LTROC			RTROC			SACR			LTH1			LSK4			LTH2			LTH3			RHM5			LSK2			LTH4			RTH1			LTOE			RTH2			RTH3			RTH4			LLEP			RLEP			LSK1			LSK3			RSK1			LHM5			RSK2			LFT1			RSK3			RSK4			LLME			RLME			RTOE			RHEEL			RFT1			RFT2			LFT2			
		X1	Y1	Z1	X2	Y2	Z2	X3	Y3	Z3	X4	Y4	Z4	X5	Y5	Z5	X6	Y6	Z6	X7	Y7	Z7	X8	Y8	Z8	X9	Y9	Z9	X10	Y10	Z10	X11	Y11	Z11	X12	Y12	Z12	X13	Y13	Z13	X14	Y14	Z14	X15	Y15	Z15	X16	Y16	Z16	X17	Y17	Z17	X18	Y18	Z18	X19	Y19	Z19	X20	Y20	Z20	X21	Y21	Z21	X22	Y22	Z22	X23	Y23	Z23	X24	Y24	Z24	X25	Y25	Z25	X26	Y26	Z26	X27	Y27	Z27	X28	Y28	Z28	X29	Y29	Z29	X30	Y30	Z30	X31	Y31	Z31	X32	Y32	Z32	X33	Y33	Z33	X34	Y34	Z34	X35	Y35	Z35	X36	Y36	Z36	X37	Y37	Z37	X38	Y38	Z38	X39	Y39	Z39	

78	0.385	-1284.865844726562	1524.724853515625	-548.97412109375	-1214.564819335938	1525.557250976562	-230.2724304199219	-1280.513549804688	1064.778076171875	-506.0545654296875	-1264.560424804688	1079.194702148438	-210.4665832519531	-1236.303466796875	1026.293334960938	-479.3222961425781	-1135.29541015625	93.83517456054688	-400.738525390625	-1231.26708984375	1027.396484375	-219.4437103271484	-1333.260986328125	940.46826171875	-525.9322509765625	-1354.498657226562	956.4505004882812	-183.2949981689453	-1390.798828125	1092.030639648438	-349.98193359375	-1176.209106445312	813.2632446289062	-496.2895202636719	-1169.420166015625	260.6663818359375	-437.8355712890625	-1247.939697265625	785.1278686523438	-535.104248046875	-1146.85009765625	714.2516479492188	-482.3044738769531	-1788.28466796875	179.4928741455078	-217.9047241210938	-1181.402465820312	356.4382019042969	-477.4400939941406	-1225.108276367188	689.3355712890625	-510.0791320800781	-1268.414184570312	797.2409057617188	-218.6806488037109	-897.6627197265625	174.197265625	-417.4281005859375	-1338.798950195312	815.1593627929688	-186.5152893066406	-1300.232788085938	701.9978637695312	-230.5975952148438	-1371.773559570312	722.98291015625	-199.7978363037109	-1141.4169921875	569.4451293945312	-462.4303894042969	-1414.140747070312	554.667724609375	-237.6016845703125	-1097.98779296875	364.2319946289062	-471.5616455078125	-1092.291137695312	263.4716491699219	-465.355712890625	-1571.123657226562	445.2083435058594	-212.2283630371094	-955.6190185546876	126.5186538696289	-473.3171081542969	-1617.357421875	511.2623291015625	-223.6359252929688	-1115.4189453125	69.42182159423828	-375.0423278808594	-1653.209838867188	384.7645874023438	-220.4102020263672	-1697.550537109375	451.1786499023438	-240.6767425537109	-1097.651977539062	136.9384155273438	-454.2081909179688	-1778.040283203125	333.6495666503906	-216.9000701904297	-1756.330688476562	141.3715515136719	-292.7086486816406	-1839.653442382812	375.8831176757812	-254.4114074707031	-1861.085815429688	360.6402587890625	-286.6146545410156	-1862.125732421875	363.5134582519531	-233.9118041992188	-1118.43359375	61.93997192382812	-426.2551574707031
79	0.39	-1267.393432617188	1521.201171875	-550.2190551757812	-1197.569458007812	1523.290649414062	-231.6602172851562	-1263.690673828125	1062.67138671875	-505.6288757324219	-1249.034057617188	1075.76513671875	-210.4473419189453	-1220.386474609375	1023.480895996094	-479.7812805175781	-1121.891479492188	90.55751037597656	-399.8430786132812	-1214.965087890625	1024.330810546875	-219.7669372558594	-1317.387451171875	938.0372924804688	-526.1311645507812	-1337.01806640625	952.7486572265624	-182.1521759033203	-1374.920166015625	1088.947387695312	-349.7451171875	-1159.984741210938	811.4889526367188	-496.9337158203125	-1155.62646484375	257.4849853515625	-437.4128723144531	-1232.58056640625	783.2697143554688	-534.49560546875	-1130.009033203125	712.5064697265625	-483.3963012695312	-1773.203491210938	184.1304931640625	-217.2563171386719	-1167.204833984375	353.4152526855469	-477.6200561523438	-1208.539184570312	687.6312255859375	-509.4832763671875	-1249.603393554688	794.3580932617188	-218.4365997314453	-884.5467529296875	170.8320770263672	-417.52685546875	-1320.088256835938	810.888916015625	-186.512939453125	-1280.128051757812	698.3372192382812	-230.4448852539062	-1351.570556640625	718.0297241210938	-200.2463989257812	-1125.947265625	566.4185180664062	-462.29931640625	-1391.843872070312	550.4075317382812	-237.1457672119141	-1083.083984375	361.1416015625	-470.7156677246094	-1077.795532226562	259.4479370117188	-464.3886108398438	-1551.417236328125	443.2714233398438	-212.298828125	-942.9747924804688	123.4114074707031	-473.6248779296875	-1595.93017578125	510.9331359863281	-223.7269744873047	-1102.331176757812	66.07938385009766	-374.3935852050781	-1633.863647460938	385.8383483886719	-220.2627410888672	-1677.836547851562	452.8372497558594	-241.2313079833984	-1084.715454101562	134.0692749023438	-453.8041381835938	-1760.172973632812	337.7735290527344	-216.7589569091797	-1742.503051757812	145.4552764892578	-292.9091186523438	-1822.307373046875	381.089599609375	-254.5427703857422	-1844.0068359375	366.0372009277344	-286.7932739257812	-1844.077026367188	368.790771484375	-233.4165954589844	-1105.6396484375	58.70103073120117	-425.6548156738281
80	0.395	-1250.756958007812	1517.226928710938	-551.7974243164062	-1181.077758789062	1520.461669921875	-233.1853485107422	-1246.968139648438	1059.948364257812	-505.3942565917969	-1232.390625	1072.397338867188	-209.8668365478516	-1202.682495117188	1021.790466308594	-479.7189331054688	-1110.242553710938	86.824951171875	-399.4535522460938	-1198.990600585938	1021.092834472656	-219.8959655761719	-1301.795654296875	935.890625	-526.1431274414062	-1319.932861328125	948.6475219726562	-181.5011596679688	-1359.055541992188	1085.234130859375	-349.4716186523438	-1142.86474609375	810.2147827148438	-497.3298950195312	-1142.224609375	254.5261993408203	-437.9423828125	-1216.1318359375	781.0145263671875	-533.8617553710938	-1112.774780273438	711.2857055664062	-484.0499877929688	-1758.455688476562	188.0462341308594	-217.2223663330078	-1152.5419921875	350.173583984375	-477.572998046875	-1192.187866210938	685.7367553710938	-508.3877868652344	-1231.246704101562	790.7042236328125	-217.9220733642578	-872.37939453125	166.4776611328125	-417.6338195800781	-1300.832885742188	807.2221069335938	-185.0080261230469	-1259.97607421875	694.14013671875	-229.7018585205078	-1332.43896484375	713.362548828125	-200.0260314941406	-1110.3525390625	563.4730834960938	-462.69970703125	-1370.648681640625	545.0397338867188	-236.8505554199219	-1069.162475585938	357.6659240722656	-470.2634582519531	-1064.987670898438	256.2983703613281	-463.6458129882812	-1531.061889648438	441.5500793457031	-212.4476928710938	-931.2998657226562	119.2618026733398	-473.2183837890625	-1574.683227539062	510.3599548339844	-224.3021545410156	-1090.566650390625	62.48876190185547	-373.4501953125	-1615.431762695312	386.6573791503906	-219.5183410644531	-1657.030517578125	454.2445373535156	-241.3634185791016	-1072.348999023438	129.7416839599609	-452.6724548339844	-1741.818603515625	341.9353332519531	-216.3957977294922	-1727.384399414062	149.1750030517578	-291.9547119140625	-1803.901733398438	385.641357421875	-254.6934509277344	-1825.934692382812	371.603515625	-287.0148010253906	-1825.76904296875	374.2013244628906	-233.2499389648438	-1094.075561523438	54.96986770629883	-424.6160583496094
81	0.4	-1233.17529296875	1512.9970703125	-552.869140625	-1164.154541015625	1517.697875976562	-234.4832305908203	-1231.656127929688	1057.399658203125	-505.6217041015625	-1216.489624023438	1068.806762695312	-209.2895355224609	-1187.717041015625	1018.567687988281	-480.2477111816406	-1099.265747070312	82.684814453125	-398.6707153320312	-1182.602905273438	1017.79443359375	-219.4419708251953	-1285.353759765625	932.8382568359376	-525.363037109375	-1303.579833984375	944.0743408203124	-181.4329528808594	-1342.941284179688	1081.553955078125	-348.7236938476562	-1125.647216796875	808.7215576171875	-498.6844177246094	-1129.60986328125	251.1775970458984	-437.5624389648438	-1199.595825195312	779.1263427734375	-533.4750366210938	-1095.240234375	709.8098754882812	-484.2568054199219	-1741.833374023438	192.2838287353516	-217.0112457275391	-1139.225219726562	347.0101013183594	-477.5651550292969	-1175.492065429688	684.1302490234375	-506.7252197265625	-1212.628051757812	787.2383422851562	-217.6138916015625	-861.6640625	162.0637512207031	-417.8799133300781	-1282.796264648438	802.65966796875	-184.8345642089844	-1240.213134765625	690.6621704101562	-228.7335968017578	-1312.3193359375	708.376220703125	-199.8054809570312	-1094.609619140625	559.5509643554688	-462.5060424804688	-1348.519287109375	539.4653930664062	-236.2125244140625	-1055.58056640625	353.3199768066406	-469.47607421875	-1052.295532226562	252.1351623535156	-462.9320983886719	-1510.485961914062	439.5671081542969	-212.2870330810547	-920.6702270507812	114.1757965087891	-473.0507202148438	-1551.927612304688	509.3267822265625	-224.0770721435547	-1079.6064453125	58.99746704101562	-372.4516296386719	-1596.119384765625	387.14794921875	-219.3634185791016	-1636.631103515625	455.1492004394531	-242.0706176757812	-1061.171020507812	124.935417175293	-451.7056274414062	-1724.403686523438	344.6256408691406	-216.3663940429688	-1711.62158203125	152.2369689941406	-291.3403625488281	-1783.915161132812	390.3485412597656	-254.6221160888672	-1807.082275390625	375.9468078613281	-286.7309875488281	-1806.436645507812	379.3573913574219	-233.6252136230469	-1083.287719726562	50.33840942382812	-423.3484802246094
82	0.405	-1215.907836914062	1508.684204101562	-553.8029174804688	-1147.68212890625	1514.315063476562	-235.5181579589844	-1215.004272460938	1053.847534179688	-504.974365234375	-1200.649658203125	1065.17041015625	-208.6495666503906	-1170.9189453125	1016.011352539062	-480.2020263671875	-1089.474609375	79.34964752197266	-397.7171936035156	-1166.244750976562	1014.039123535156	-219.3862609863281	-1269.962524414062	930.070556640625	-525.557861328125	-1287.164306640625	939.6134643554688	-180.9990539550781	-1327.515502929688	1077.759643554688	-347.9505920410156	-1108.380493164062	806.979248046875	-499.6972351074219	-1118.029418945312	247.3135070800781	-437.1062927246094	-1183.090454101562	776.6757202148438	-532.482421875	-1077.743286132812	708.3495483398438	-484.4700012207031	-1725.341918945312	196.2006225585938	-216.2954711914062	-1124.924072265625	343.402099609375	-476.7184448242188	-1158.524169921875	682.1565551757812	-505.321044921875	-1194.069580078125	783.9093627929688	-217.2275695800781	-851.8670654296875	156.9158935546875	-418.1476135253906	-1264.388916015625	798.186279296875	-184.8005981445312	-1219.873413085938	686.650634765625	-227.5292816162109	-1292.48681640625	703.340087890625	-199.427001953125	-1080.165893554688	556.0851440429688	-462.5262756347656	-1326.3642578125	533.9967651367188	-236.0828704833984	-1042.785034179688	348.8086853027344	-469.1246948242188	-1040.728637695312	247.1975860595703	-462.2691040039062	-1489.981689453125	437.2738342285156	-212.1351165771484	-911.0161743164062	108.7907333374023	-472.908935546875	-1529.572021484375	507.8010559082031	-224.7193298339844	-1070.636474609375	56.12878036499023	-370.6227111816406	-1576.04150390625	387.5290832519531	-219.0169372558594	-1614.974609375	455.4259033203125	-242.2388458251953	-1051.73046875	120.6735458374023	-452.6493835449219	-1706.152954101562	347.6746520996094	-216.9168090820312	-1696.785034179688	155.2578125	-290.4922485351562	-1763.751220703125	394.2695617675781	-254.9965057373047	-1787.256958007812	380.3752136230469	-287.0088500976562	-1786.495361328125	383.8333740234375	-233.5789794921875	-1073.75244140625	47.21670150756836	-421.8488464355469
